<svg width="24" height="24" viewBox="0 0 24 24" fill="none" xmlns="http://www.w3.org/2000/svg">
<path d="M11.9947 23C10.4762 23 9.05354 22.7125 7.72666 22.1375C6.39977 21.5695 5.23254 20.7815 4.22496 19.7735C3.21738 18.7725 2.42622 17.6083 1.85148 16.2807C1.28383 14.9461 1 13.5192 1 12C1 10.4808 1.28383 9.05744 1.85148 7.72991C2.42622 6.39529 3.21738 5.22394 4.22496 4.21588C5.23254 3.20781 6.39977 2.41981 7.72666 1.85189C9.05354 1.28396 10.4762 1 11.9947 1C13.5131 1 14.9358 1.28396 16.2627 1.85189C17.5967 2.41981 18.7675 3.20781 19.775 4.21588C20.7826 5.22394 21.5702 6.39529 22.1379 7.72991C22.7126 9.05744 23 10.4808 23 12C23 13.5192 22.7126 14.9461 22.1379 16.2807C21.5702 17.6083 20.7826 18.7725 19.775 19.7735C18.7675 20.7815 17.5967 21.5695 16.2627 22.1375C14.9358 22.7125 13.5131 23 11.9947 23ZM11.9947 20.8277C13.2151 20.8277 14.3575 20.597 15.4219 20.1355C16.4862 19.6812 17.4228 19.0494 18.2317 18.2401C19.0477 17.4308 19.6828 16.4937 20.1369 15.4288C20.591 14.364 20.8181 13.221 20.8181 12C20.8181 10.779 20.591 9.63601 20.1369 8.57115C19.6828 7.49919 19.0477 6.56212 18.2317 5.75992C17.4228 4.95063 16.4862 4.31881 15.4219 3.86447C14.3575 3.40303 13.2151 3.17231 11.9947 3.17231C10.7813 3.17231 9.63893 3.40303 8.56749 3.86447C7.50314 4.31881 6.56652 4.95063 5.75762 5.75992C4.94872 6.56212 4.31366 7.49919 3.85244 8.57115C3.39832 9.63601 3.17126 10.779 3.17126 12C3.17126 13.221 3.39832 14.364 3.85244 15.4288C4.31366 16.4937 4.94872 17.4308 5.75762 18.2401C6.56652 19.0494 7.50314 19.6812 8.56749 20.1355C9.63893 20.597 10.7813 20.8277 11.9947 20.8277ZM10.8452 17.0581C10.6465 17.0581 10.4691 17.0155 10.313 16.9303C10.1569 16.838 10.0044 16.7031 9.85535 16.5257L7.34349 13.4589C7.15901 13.2246 7.06676 12.9868 7.06676 12.7454C7.06676 12.4827 7.15546 12.2591 7.33285 12.0745C7.51734 11.8829 7.7373 11.787 7.99274 11.787C8.15594 11.787 8.3014 11.8225 8.42912 11.8935C8.56394 11.9574 8.69521 12.0745 8.82293 12.2449L10.8026 14.758L15.0068 8.01742C15.2267 7.65537 15.5035 7.47435 15.837 7.47435C16.0853 7.47435 16.3088 7.55599 16.5075 7.71926C16.7062 7.88254 16.8055 8.09551 16.8055 8.35818C16.8055 8.47886 16.7771 8.6031 16.7204 8.73088C16.6707 8.85156 16.6104 8.96515 16.5394 9.07164L11.7818 16.515C11.5547 16.8771 11.2425 17.0581 10.8452 17.0581Z" fill="black"/>
</svg>
