<svg width="24" height="24" viewBox="0 0 24 24" fill="none" xmlns="http://www.w3.org/2000/svg">
<path d="M12 4.78983C13.0941 4.78983 14.1242 4.92059 15.0902 5.18211C16.0563 5.44364 16.9476 5.79056 17.7642 6.22287C18.5861 6.64985 19.3173 7.12219 19.9578 7.6399C20.6036 8.15761 21.1533 8.67799 21.607 9.20104C22.0606 9.71875 22.4049 10.1991 22.6397 10.6421C22.8799 11.0851 23 11.4427 23 11.7149C23 12.0191 22.8506 12.4301 22.5517 12.9478C22.2581 13.4655 21.8312 14.0232 21.2707 14.621C20.7103 15.2134 20.0352 15.7792 19.2453 16.3182L18.0684 15.1414C18.5434 14.8211 18.9731 14.4929 19.3574 14.1566C19.7416 13.8151 20.0699 13.4895 20.3421 13.1799C20.6143 12.865 20.8224 12.5795 20.9665 12.3233C21.1106 12.0671 21.1827 11.8643 21.1827 11.7149C21.1827 11.5601 21.0733 11.3226 20.8544 11.0023C20.641 10.6821 20.3341 10.3192 19.9338 9.91356C19.5335 9.50259 19.0558 9.08896 18.5007 8.67265C17.9457 8.25635 17.3265 7.87207 16.6434 7.51981C15.9602 7.16222 15.229 6.87401 14.4498 6.65519C13.6705 6.43636 12.854 6.32695 12 6.32695C11.5784 6.32695 11.1647 6.35897 10.7591 6.42302C10.3588 6.48706 9.97453 6.57513 9.60626 6.68721L8.30932 5.39027C8.87506 5.2088 9.46482 5.0647 10.0786 4.95795C10.6977 4.84587 11.3382 4.78983 12 4.78983ZM12 18.6479C10.9219 18.6479 9.89981 18.5171 8.93377 18.2556C7.97307 17.9941 7.08443 17.6498 6.26783 17.2229C5.45124 16.7906 4.71737 16.3155 4.06623 15.7978C3.42043 15.2801 2.86803 14.7624 2.40902 14.2447C1.95536 13.7217 1.60577 13.2386 1.36026 12.7957C1.12009 12.3473 1 11.9871 1 11.7149C1 11.4854 1.08806 11.1918 1.26419 10.8342C1.44566 10.4713 1.70718 10.0737 2.04876 9.64136C2.39034 9.20371 2.80398 8.76072 3.28967 8.31239C3.78069 7.85873 4.33576 7.42374 4.95488 7.00744L6.16376 8.20832C5.65138 8.54456 5.18971 8.88881 4.77875 9.24107C4.36778 9.59332 4.01553 9.9349 3.72198 10.2658C3.43377 10.5967 3.20961 10.8903 3.04949 11.1465C2.89471 11.3973 2.81732 11.5868 2.81732 11.7149C2.81732 11.9017 2.92407 12.1632 3.13755 12.4994C3.35638 12.8357 3.66594 13.2066 4.06623 13.6122C4.46652 14.0125 4.94153 14.4182 5.49127 14.8291C6.04634 15.2348 6.66545 15.611 7.34862 15.958C8.03178 16.3049 8.76298 16.5824 9.54221 16.7906C10.3268 16.9987 11.146 17.1028 12 17.1028C12.4643 17.1028 12.9207 17.0681 13.369 16.9987C13.8173 16.9293 14.2496 16.8306 14.6659 16.7025L15.9389 17.9834C15.3411 18.1916 14.7113 18.3544 14.0495 18.4718C13.393 18.5892 12.7099 18.6479 12 18.6479ZM12.008 7.40773C12.6004 7.40773 13.1582 7.51981 13.6812 7.74398C14.2043 7.9628 14.6633 8.26969 15.0582 8.66465C15.4532 9.05426 15.7627 9.5106 15.9869 10.0336C16.2111 10.5567 16.3231 11.1171 16.3231 11.7149C16.3231 11.9657 16.2991 12.2086 16.2511 12.4434C16.2031 12.6782 16.1363 12.9051 16.0509 13.1239L10.599 7.67193C10.8125 7.59187 11.0366 7.52782 11.2715 7.47979C11.5116 7.43175 11.7572 7.40773 12.008 7.40773ZM12.008 16.03C11.3996 16.03 10.8338 15.9179 10.3108 15.6938C9.78772 15.4643 9.32872 15.152 8.93377 14.7571C8.53882 14.3568 8.22926 13.8978 8.0051 13.3801C7.78627 12.857 7.67686 12.302 7.67686 11.7149C7.67686 11.4213 7.70621 11.1384 7.76492 10.8662C7.82363 10.5887 7.91169 10.3272 8.02911 10.0817L13.6332 15.6777C13.3823 15.7898 13.1181 15.8779 12.8406 15.9419C12.5684 16.0006 12.2909 16.03 12.008 16.03ZM18.3326 18.784L4.76274 5.23015C4.63998 5.10739 4.5786 4.95795 4.5786 4.78182C4.5786 4.60036 4.63998 4.44825 4.76274 4.32549C4.88549 4.20274 5.0376 4.14136 5.21907 4.14136C5.40053 4.14136 5.54998 4.20274 5.66739 4.32549L19.2293 17.8793C19.3574 18.0074 19.4214 18.1569 19.4214 18.3277C19.4267 18.4985 19.3627 18.6506 19.2293 18.784C19.1065 18.9174 18.9571 18.9815 18.7809 18.9761C18.6048 18.9761 18.4554 18.9121 18.3326 18.784Z" fill="black"/>
</svg>
