<svg width="24" height="24" viewBox="0 0 24 24" fill="none" xmlns="http://www.w3.org/2000/svg">
<path d="M16.9768 8.92786C17.3598 8.61118 17.9266 8.66499 18.2434 9.04798C18.9281 9.87598 19.2827 10.9264 19.2424 11.9991C19.2831 13.0724 18.9285 14.1239 18.2434 14.9523C17.9265 15.3351 17.3597 15.3881 16.9768 15.0714C16.6179 14.7745 16.5476 14.2581 16.801 13.879L17.0002 13.6134C17.3134 13.1536 17.4702 12.6021 17.4436 12.0421C17.4422 12.0138 17.4422 11.9855 17.4436 11.9572C17.474 11.3171 17.265 10.6882 16.8567 10.1945C16.54 9.81143 16.5938 9.24461 16.9768 8.92786Z" fill="black"/>
<path d="M10.6938 2.81547C12.3244 1.68384 14.5166 2.8748 14.4858 4.84282V19.1778C14.4422 21.1437 12.1654 22.3058 10.5513 21.1856C10.5106 21.1574 10.4725 21.1254 10.437 21.0909L5.2915 16.0811H3.27881C1.91551 16.0811 0.792498 14.9517 0.79248 13.5909V10.4102C0.79248 9.0494 1.9155 7.91899 3.27881 7.91899H5.29834L10.5874 2.90141L10.6938 2.81547ZM2.59326 13.5909C2.59328 13.9627 2.91476 14.2813 3.27881 14.2813H5.65674C5.89111 14.2813 6.11667 14.3728 6.28467 14.5362L11.6206 19.7315C12.0526 19.9834 12.6746 19.6559 12.686 19.1377V4.82133C12.6979 4.31572 12.1711 4.0245 11.7603 4.2686L6.27686 9.47172C6.10964 9.63034 5.88722 9.71879 5.65674 9.71879H3.27881C2.91474 9.71879 2.59326 10.0384 2.59326 10.4102V13.5909Z" fill="black"/>
</svg>
